<svg width="18" height="24" viewBox="0 0 18 24" fill="none" xmlns="http://www.w3.org/2000/svg">
<g id="logos:css-3" clip-path="url(#clip0_2780_5201)">
<path id="Vector" d="M8.74953 23.9393L1.8233 22.0165L0.279785 4.70459H17.24L15.6949 22.0138L8.74953 23.9393Z" fill="#264DE4"/>
<path id="Vector_2" d="M14.3722 20.9117L15.6926 6.12012H8.76001V22.4676L14.3722 20.9117Z" fill="#2965F1"/>
<path id="Vector_3" d="M3.81844 12.5411L4.00871 14.6644H8.76011V12.5411H3.81844ZM3.43604 8.24365L3.62903 10.3669H8.76011V8.24365H3.43604ZM8.76011 18.0554L8.75081 18.0579L6.38617 17.4194L6.23499 15.726H4.10358L4.40102 19.0598L8.75034 20.2671L8.76011 20.2645V18.0554Z" fill="#EBEBEB"/>
<path id="Vector_4" d="M4.27148 0H6.84301V1.07541H5.3469V2.15083H6.84314V3.22617H4.27148V0ZM7.35738 0H9.92897V0.935136H8.43279V1.12215H9.92897V3.27297H7.35745V2.29097H8.85362V2.10396H7.35731L7.35738 0ZM10.4433 0H13.0149V0.935136H11.5188V1.12215H13.0149V3.27297H10.4433V2.29097H11.9395V2.10396H10.4434V0H10.4433Z" fill="black"/>
<path id="Vector_5" d="M13.6882 12.5411L14.0714 8.24365H8.75275V10.3669H11.7446L11.5514 12.5411H8.75275V14.6644H11.3673L11.1208 17.418L8.75269 18.0572V20.2661L13.1055 19.0598L13.1374 18.7011L13.6364 13.1113L13.6882 12.5411Z" fill="white"/>
</g>
<defs>
<clipPath id="clip0_2780_5201">
<rect width="17.02" height="24" fill="white" transform="translate(0.25)"/>
</clipPath>
</defs>
</svg>
