<svg width="20" height="24" viewBox="0 0 20 24" fill="none" xmlns="http://www.w3.org/2000/svg">
<g id="flutter" clip-path="url(#clip0_2854_5525)">
<path id="Vector" d="M3.73066 15.6948L0.0200195 11.999L12.0684 0H19.4887M19.4887 11.0727H12.0684L9.28884 13.8411L12.9995 17.5368" fill="#42A5F5" fill-opacity="0.8"/>
<path id="Vector_2" d="M9.28857 21.2319L12.0681 24.0003H19.4885L12.9992 17.5371" fill="#0D47A1"/>
<path id="Vector_3" d="M5.5874 17.5385L9.2922 13.8477L12.997 17.5376L9.2922 21.2285L5.5874 17.5385Z" fill="#42A5F5"/>
<path id="Vector_4" d="M9.29199 21.229L12.9968 17.5391L13.5139 18.0541L9.80914 21.7441L9.29199 21.229Z" fill="url(#paint0_linear_2854_5525)"/>
<path id="Vector_5" d="M9.28857 21.2319L14.7942 19.3374L12.9992 17.5361" fill="url(#paint1_linear_2854_5525)"/>
</g>
<defs>
<linearGradient id="paint0_linear_2854_5525" x1="11.1451" y1="19.3833" x2="11.6602" y2="19.9005" gradientUnits="userSpaceOnUse">
<stop offset="0.2" stop-opacity="0.15"/>
<stop offset="0.85" stop-color="#616161" stop-opacity="0.01"/>
</linearGradient>
<linearGradient id="paint1_linear_2854_5525" x1="9.28989" y1="19.3841" x2="14.7954" y2="19.3841" gradientUnits="userSpaceOnUse">
<stop offset="0.2" stop-opacity="0.55"/>
<stop offset="0.85" stop-color="#616161" stop-opacity="0.01"/>
</linearGradient>
<clipPath id="clip0_2854_5525">
<rect width="19.4687" height="24" fill="white" transform="translate(0.0200195)"/>
</clipPath>
</defs>
</svg>
