<svg width="19" height="24" viewBox="0 0 19 24" fill="none" xmlns="http://www.w3.org/2000/svg">
<g id="logos:java" clip-path="url(#clip0_2854_5531)">
<path id="Vector" d="M6.21251 18.5526C6.21251 18.5526 5.29707 19.085 6.86402 19.2651C8.76238 19.4817 9.73255 19.4507 11.8246 19.0547C11.8246 19.0547 12.3746 19.3996 13.1426 19.6983C8.45303 21.7083 2.52899 19.5818 6.21251 18.5526ZM5.63944 15.9297C5.63944 15.9297 4.61268 16.6898 6.18081 16.852C8.20867 17.0612 9.81009 17.0783 12.5812 16.5447C12.5812 16.5447 12.9645 16.9332 13.5672 17.1458C7.8971 18.8039 1.58164 17.2765 5.63944 15.9297Z" fill="#5382A1"/>
<path id="Vector_2" d="M10.472 11.4809C11.6276 12.8113 10.1684 14.0085 10.1684 14.0085C10.1684 14.0085 13.1025 12.4938 11.755 10.597C10.4965 8.82817 9.53131 7.94919 14.7561 4.91895C14.7561 4.91895 6.55493 6.96734 10.472 11.4809Z" fill="#E76F00"/>
<path id="Vector_3" d="M16.6727 20.4935C16.6727 20.4935 17.3501 21.0517 15.9265 21.4835C13.2196 22.3036 4.65997 22.5513 2.28211 21.5162C1.42737 21.1444 3.03031 20.6283 3.53451 20.52C4.06034 20.406 4.36088 20.4273 4.36088 20.4273C3.41028 19.7575 -1.78339 21.7422 1.72278 22.3105C11.2845 23.8612 19.1528 21.6123 16.6727 20.4935ZM6.65238 13.2129C6.65238 13.2129 2.29848 14.2471 5.11061 14.6226C6.29795 14.7816 8.66491 14.7456 10.8697 14.5608C12.6716 14.4089 14.4809 14.0857 14.4809 14.0857C14.4809 14.0857 13.8455 14.3578 13.3859 14.6717C8.96449 15.8346 0.423146 15.2936 2.88209 14.1041C4.96162 13.0989 6.65238 13.2129 6.65238 13.2129ZM14.4629 17.5788C18.9576 15.2432 16.8794 12.9987 15.4289 13.3011C15.0734 13.3751 14.9149 13.4392 14.9149 13.4392C14.9149 13.4392 15.0469 13.2325 15.2989 13.143C18.1684 12.1341 20.3753 16.1185 14.3726 17.6965C14.3726 17.6966 14.4422 17.6344 14.4629 17.5788Z" fill="#5382A1"/>
<path id="Vector_4" d="M11.7564 0.02546C11.7564 0.02546 14.2456 2.51563 9.39558 6.3446C5.5064 9.41619 8.50872 11.1675 9.39399 13.1684C7.12378 11.1201 5.45771 9.31693 6.57547 7.63873C8.21595 5.17513 12.7607 3.98081 11.7564 0.02546Z" fill="#E76F00"/>
<path id="Vector_5" d="M7.09634 23.9076C11.4106 24.1838 18.0355 23.7543 18.1924 21.7129C18.1924 21.7129 17.8908 22.4869 14.6269 23.1014C10.9447 23.7944 6.40314 23.7135 3.70947 23.2694C3.70954 23.2694 4.26083 23.7258 7.09634 23.9076Z" fill="#5382A1"/>
</g>
<defs>
<clipPath id="clip0_2854_5531">
<rect width="17.7594" height="24" fill="white" transform="translate(0.48877)"/>
</clipPath>
</defs>
</svg>
