<svg width="25" height="24" viewBox="0 0 25 24" fill="none" xmlns="http://www.w3.org/2000/svg">
<g id="skill-icons:javascript" clip-path="url(#clip0_2780_5207)">
<g id="Group">
<path id="Vector" d="M18.645 0H5.89502C2.78842 0 0.27002 2.5184 0.27002 5.625V18.375C0.27002 21.4816 2.78842 24 5.89502 24H18.645C21.7516 24 24.27 21.4816 24.27 18.375V5.625C24.27 2.5184 21.7516 0 18.645 0Z" fill="#F0DB4F"/>
<path id="Vector_2" d="M6.58042 20.0559L8.41698 18.9444C8.77135 19.5727 9.09367 20.1042 9.86682 20.1042C10.6079 20.1042 11.0752 19.8143 11.0752 18.6867V11.0182H13.3306V18.7186C13.3306 21.0546 11.9613 22.1179 9.96348 22.1179C8.15926 22.1179 7.11198 21.1835 6.58032 20.0558M14.5556 19.8143L16.392 18.751C16.8755 19.5405 17.5038 20.1204 18.6153 20.1204C19.5499 20.1204 20.1458 19.6532 20.1458 19.0088C20.1458 18.2355 19.5336 17.9616 18.5025 17.5106L17.9388 17.2688C16.3116 16.5762 15.2321 15.7062 15.2321 13.8697C15.2321 12.178 16.521 10.8892 18.5349 10.8892C19.9687 10.8892 20.9997 11.3887 21.7407 12.6936L19.9847 13.8213C19.598 13.1286 19.1793 12.8547 18.5349 12.8547C17.8743 12.8547 17.4554 13.2736 17.4554 13.8213C17.4554 14.4979 17.8743 14.7718 18.8409 15.1908L19.4047 15.4324C21.3218 16.2541 22.4012 17.0917 22.4012 18.9765C22.4012 21.0066 20.8063 22.1181 18.6637 22.1181C16.5694 22.1181 15.2161 21.1193 14.5556 19.8143Z" fill="#323330"/>
</g>
</g>
<defs>
<clipPath id="clip0_2780_5207">
<rect width="24" height="24" fill="white" transform="translate(0.27002)"/>
</clipPath>
</defs>
</svg>
