<svg width="47" height="24" viewBox="0 0 47 24" fill="none" xmlns="http://www.w3.org/2000/svg">
<g id="logos:php" clip-path="url(#clip0_2780_5191)">
<path id="Vector" d="M23.4899 23.9289C36.0575 23.9289 46.2455 18.5722 46.2455 11.9644C46.2455 5.35667 36.0575 0 23.4899 0C10.9224 0 0.734375 5.35667 0.734375 11.9644C0.734375 18.5722 10.9224 23.9289 23.4899 23.9289Z" fill="url(#paint0_radial_2780_5191)"/>
<path id="Vector_2" d="M23.49 23.0398C35.5666 23.0398 45.3566 18.0811 45.3566 11.9642C45.3566 5.84737 35.5666 0.888672 23.49 0.888672C11.4133 0.888672 1.62329 5.84737 1.62329 11.9642C1.62329 18.0811 11.4133 23.0398 23.49 23.0398Z" fill="#6181B6"/>
<path id="Vector_3" d="M27.9168 15.5556L29.0012 9.97335C29.2501 8.71113 29.0368 7.76891 28.3968 7.18224C27.7745 6.61335 26.7079 6.32891 25.1434 6.32891H23.259L23.7923 3.55557C23.8101 3.44891 23.7923 3.34224 23.7212 3.25335C23.6501 3.16446 23.5612 3.12891 23.4545 3.12891H20.859C20.6812 3.12891 20.539 3.25335 20.5034 3.41335L19.3479 9.33335C19.2412 8.6578 18.9923 8.08891 18.5657 7.62668C17.8012 6.75557 16.6101 6.31113 14.9923 6.31113H9.99676C9.81899 6.31113 9.67676 6.43557 9.64121 6.59557L7.31232 18.6134C7.29454 18.72 7.31232 18.8267 7.38343 18.9156C7.45454 19.0045 7.54343 19.04 7.6501 19.04H10.2634C10.4412 19.04 10.5834 18.9156 10.619 18.7556L11.1879 15.8578H13.1257C14.139 15.8578 15.0101 15.7511 15.6679 15.5378C16.3612 15.3067 16.9834 14.9334 17.5345 14.4178C17.979 14.0089 18.3523 13.5467 18.6368 13.0489L18.1745 15.4489C18.1568 15.5556 18.1745 15.6622 18.2457 15.7511C18.3168 15.84 18.4057 15.8756 18.5123 15.8756H21.1079C21.2857 15.8756 21.4279 15.7511 21.4634 15.5911L22.7434 9.01335H24.5212C25.2857 9.01335 25.499 9.15557 25.5701 9.22668C25.6234 9.28002 25.7301 9.49335 25.6057 10.1511L24.5745 15.4667C24.5568 15.5734 24.5745 15.68 24.6457 15.7689C24.7168 15.8578 24.8057 15.8934 24.9123 15.8934H27.579C27.739 15.84 27.8812 15.7156 27.9168 15.5556ZM15.899 10.9334C15.739 11.7689 15.4368 12.3734 14.9923 12.7111C14.5479 13.0489 13.819 13.2267 12.859 13.2267H11.7034L12.539 8.92446H14.0323C15.1345 8.92446 15.579 9.15557 15.7568 9.35113C15.9879 9.63557 16.0412 10.1867 15.899 10.9334ZM39.0101 7.62668C38.2457 6.75557 37.0545 6.31113 35.4368 6.31113H30.4057C30.2279 6.31113 30.0857 6.43557 30.0501 6.59557L27.7212 18.5956C27.7034 18.7022 27.7212 18.8089 27.7923 18.8978C27.8634 18.9867 27.9523 19.0222 28.059 19.0222H30.6723C30.8501 19.0222 30.9923 18.8978 31.0279 18.7378L31.5968 15.84H33.5345C34.5479 15.84 35.419 15.7334 36.0768 15.52C36.7701 15.2889 37.3923 14.9156 37.9434 14.4C38.4057 13.9734 38.7968 13.4934 39.0812 12.9778C39.3657 12.4622 39.579 11.8934 39.7034 11.2711C40.0057 9.72446 39.7745 8.51557 39.0101 7.62668ZM36.2901 10.9334C36.1301 11.7689 35.8279 12.3734 35.3834 12.7111C34.939 13.0489 34.2101 13.2267 33.2501 13.2267H32.0945L32.9301 8.92446H34.4234C35.5257 8.92446 35.9701 9.15557 36.1479 9.35113C36.3968 9.63557 36.4501 10.1867 36.2901 10.9334Z" fill="white"/>
<path id="Vector_4" d="M14.0322 8.56882C15.0277 8.56882 15.6855 8.7466 16.0233 9.11993C16.3611 9.49326 16.4322 10.1155 16.2544 11.0044C16.0766 11.9288 15.7211 12.6044 15.2055 12.9955C14.6899 13.3866 13.9077 13.5822 12.8588 13.5822H11.2766L12.2544 8.56882H14.0322ZM7.66772 18.6666H10.2811L10.9033 15.4844H13.1433C14.1388 15.4844 14.9388 15.3777 15.5788 15.1644C16.2188 14.951 16.7877 14.6133 17.3211 14.1155C17.7655 13.7066 18.1211 13.2622 18.3877 12.7822C18.6544 12.3022 18.8499 11.7688 18.9566 11.1822C19.2411 9.75993 19.0277 8.65771 18.3344 7.85771C17.6411 7.05771 16.5388 6.6666 15.0277 6.6666H9.99661L7.66772 18.6666ZM20.8766 3.48438H23.4722L22.8499 6.6666H25.1611C26.6188 6.6666 27.6144 6.91549 28.1655 7.43104C28.7166 7.9466 28.8766 8.76437 28.6633 9.90215L27.5788 15.4844H24.9477L25.9788 10.1688C26.1033 9.56437 26.0499 9.15549 25.8544 8.94215C25.6588 8.72882 25.2144 8.60438 24.5566 8.60438H22.4766L21.1433 15.4844H18.5477L20.8766 3.48438ZM34.4233 8.56882C35.4188 8.56882 36.0766 8.7466 36.4144 9.11993C36.7522 9.49326 36.8233 10.1155 36.6455 11.0044C36.4677 11.9288 36.1122 12.6044 35.5966 12.9955C35.0811 13.3866 34.2988 13.5822 33.2499 13.5822H31.6677L32.6455 8.56882H34.4233ZM28.0588 18.6666H30.6722L31.2944 15.4844H33.5344C34.5299 15.4844 35.3299 15.3777 35.9699 15.1644C36.6099 14.951 37.1788 14.6133 37.7122 14.1155C38.1566 13.7066 38.5122 13.2622 38.7788 12.7822C39.0455 12.3022 39.2411 11.7688 39.3477 11.1822C39.6322 9.75993 39.4188 8.65771 38.7255 7.85771C38.0322 7.05771 36.9299 6.6666 35.4188 6.6666H30.3877L28.0588 18.6666Z" fill="#000004"/>
</g>
<defs>
<radialGradient id="paint0_radial_2780_5191" cx="0" cy="0" r="1" gradientUnits="userSpaceOnUse" gradientTransform="translate(14.3969 4.20756) scale(29.8836)">
<stop stop-color="white"/>
<stop offset="0.5" stop-color="#4C6B97"/>
<stop offset="1" stop-color="#231F20"/>
</radialGradient>
<clipPath id="clip0_2780_5191">
<rect width="45.52" height="24" fill="white" transform="translate(0.72998)"/>
</clipPath>
</defs>
</svg>
