<svg width="28" height="24" viewBox="0 0 28 24" fill="none" xmlns="http://www.w3.org/2000/svg">
<g id="logos:react" clip-path="url(#clip0_2854_5537)">
<path id="Vector" d="M22.4042 7.77888C22.1174 7.68039 21.8282 7.58915 21.5368 7.50524C21.5857 7.30503 21.6308 7.10725 21.6708 6.91295C22.3274 3.72221 21.8982 1.15169 20.4319 0.305347C19.0262 -0.506009 16.7271 0.340014 14.4052 2.36282C14.1764 2.56253 13.9526 2.768 13.7342 2.97903C13.5879 2.8387 13.4391 2.7011 13.2877 2.56629C10.8543 0.403447 8.4151 -0.508117 6.95047 0.340646C5.54594 1.15453 5.13005 3.571 5.7212 6.59494C5.78002 6.89443 5.84643 7.19237 5.92036 7.48848C5.5751 7.58669 5.24194 7.69122 4.9231 7.80249C2.07005 8.79824 0.248047 10.3587 0.248047 11.9773C0.248047 13.649 2.20405 15.3258 5.17563 16.3425C5.41654 16.4246 5.65945 16.5006 5.90415 16.5706C5.82468 16.8895 5.75413 17.2106 5.69257 17.5335C5.12899 20.505 5.5691 22.8643 6.96984 23.673C8.41657 24.5082 10.8448 23.6499 13.2091 21.5809C13.4008 21.4127 13.5883 21.2397 13.7714 21.0622C14.008 21.2907 14.2509 21.5125 14.4998 21.7275C16.7902 23.7002 19.052 24.4968 20.4514 23.6859C21.8968 22.8483 22.3666 20.3137 21.7567 17.23C21.7086 16.9884 21.6548 16.7481 21.5951 16.5091C21.7656 16.4585 21.933 16.4064 22.0962 16.3523C25.1854 15.3278 27.1954 13.6713 27.1954 11.9773C27.1954 10.3528 25.3146 8.7818 22.4042 7.77888ZM21.7342 15.2585C21.5868 15.3073 21.4356 15.3544 21.2815 15.4003C20.9405 14.3195 20.4803 13.1703 19.917 11.9829C20.4545 10.8238 20.897 9.68926 21.2285 8.61553C21.5042 8.6954 21.7716 8.77959 22.0295 8.86842C24.5232 9.72782 26.0443 10.9983 26.0443 11.9773C26.0443 13.02 24.4015 14.3737 21.7342 15.2585ZM20.6274 17.4538C20.8971 18.8173 20.9355 20.0502 20.7569 21.014C20.5965 21.88 20.2737 22.4574 19.8746 22.6887C19.0254 23.1807 17.2093 22.5411 15.2507 20.8539C15.0191 20.6541 14.7932 20.4478 14.5731 20.2354C15.3325 19.4041 16.0913 18.4378 16.8319 17.3645C18.1347 17.2488 19.3654 17.0595 20.4815 16.8013C20.5353 17.0176 20.5839 17.2352 20.6274 17.4538ZM9.43499 22.6036C8.60531 22.8969 7.94447 22.9053 7.54499 22.6747C6.69499 22.184 6.34163 20.2896 6.82363 17.7484C6.88092 17.4482 6.94653 17.1495 7.02036 16.8529C8.12415 17.0974 9.34594 17.2731 10.6517 17.3791C11.3974 18.4294 12.1782 19.3947 12.965 20.2399C12.7978 20.4019 12.6266 20.5597 12.4516 20.7133C11.406 21.6281 10.3584 22.2772 9.43499 22.6036ZM5.54805 15.2521C4.23405 14.8025 3.14889 14.2182 2.4051 13.5806C1.73668 13.0077 1.39931 12.4388 1.39931 11.9773C1.39931 10.995 2.86215 9.74216 5.30205 8.89065C5.59815 8.78739 5.90805 8.68992 6.22963 8.59846C6.56689 9.69642 7.0092 10.8444 7.54299 12.0053C7.00226 13.1834 6.55363 14.3497 6.2131 15.4606C5.98974 15.3966 5.76799 15.3271 5.54805 15.2521ZM6.85099 6.37355C6.34457 3.7828 6.68089 1.82848 7.52731 1.33798C8.42878 0.815552 10.4223 1.56042 12.5234 3.42801C12.6604 3.55007 12.7952 3.67461 12.9277 3.80155C12.1448 4.64315 11.3712 5.60129 10.6322 6.6453C9.36478 6.7629 8.15163 6.95172 7.03626 7.20472C6.96754 6.9293 6.90576 6.65209 6.85099 6.37355ZM18.4749 9.24681C18.2114 8.79128 17.9382 8.34149 17.6554 7.89774C18.5152 8.00659 19.339 8.15105 20.1126 8.32766C19.8804 9.07284 19.5909 9.85185 19.2502 10.6506C19.0011 10.1775 18.7426 9.70951 18.4749 9.24681ZM13.7347 4.62513C14.2656 5.20098 14.7974 5.84385 15.3205 6.54141C14.2594 6.49125 13.1966 6.49103 12.1355 6.54078C12.6591 5.84965 13.1954 5.20762 13.7347 4.62513ZM8.96405 9.25471C8.69966 9.71369 8.44601 10.1788 8.20331 10.6496C7.86815 9.85374 7.58131 9.07115 7.3471 8.31543C8.11594 8.14326 8.93584 8.00248 9.79015 7.89564C9.5042 8.34209 9.22875 8.79531 8.96405 9.25471ZM9.81468 16.1409C8.93205 16.0423 8.09984 15.9088 7.3312 15.7412C7.5691 14.972 7.86226 14.1728 8.20468 13.3599C8.44835 13.831 8.70305 14.2964 8.96857 14.7556C9.24163 15.2277 9.52436 15.69 9.81468 16.1409ZM13.7665 19.4106C13.2208 18.8213 12.6766 18.1694 12.1451 17.4683C12.6611 17.4885 13.1871 17.4988 13.7217 17.4988C14.271 17.4988 14.8139 17.4865 15.3484 17.4627C14.8236 18.1765 14.2938 18.8293 13.7665 19.4106ZM19.261 13.3183C19.6212 14.1402 19.9248 14.9353 20.1658 15.6913C19.3846 15.8698 18.541 16.0135 17.6522 16.1203C17.937 15.6683 18.2128 15.2107 18.4794 14.7477C18.7505 14.2771 19.0111 13.8005 19.261 13.3183ZM17.4823 14.1719C17.0741 14.8818 16.6429 15.5781 16.1895 16.2599C15.3682 16.3181 14.5451 16.347 13.7217 16.3466C12.8831 16.3466 12.0674 16.3205 11.2819 16.2695C10.8167 15.5893 10.3773 14.8917 9.96478 14.1783C9.55417 13.4686 9.17074 12.7436 8.8151 12.0048C9.16983 11.2658 9.55221 10.5404 9.96142 9.83025L9.96131 9.83035C10.3704 9.11996 10.8062 8.42538 11.2679 7.74812C12.0693 7.68742 12.8911 7.65581 13.7216 7.65581C14.5559 7.65581 15.3789 7.68774 16.18 7.74885C16.6371 8.42511 17.0702 9.1173 17.4785 9.82413C17.889 10.5328 18.2765 11.2546 18.6402 11.9885C18.2802 12.7298 17.894 13.4581 17.4823 14.1719ZM19.857 1.30363C20.7593 1.82458 21.1103 3.92536 20.5433 6.68029C20.5071 6.85605 20.4665 7.03507 20.4223 7.21662C19.3042 6.95826 18.0902 6.76616 16.8191 6.64678C16.0787 5.59128 15.3114 4.63167 14.5412 3.80092C14.7431 3.60614 14.9497 3.41642 15.161 3.23192C17.1505 1.49888 19.0098 0.814604 19.857 1.30363ZM13.7217 9.5685C15.0507 9.5685 16.128 10.647 16.128 11.9773C16.128 13.3076 15.0507 14.3861 13.7217 14.3861C12.3928 14.3861 11.3154 13.3076 11.3154 11.9773C11.3154 10.647 12.3928 9.5685 13.7217 9.5685Z" fill="#00D8FF"/>
</g>
<defs>
<clipPath id="clip0_2854_5537">
<rect width="26.948" height="24" fill="white" transform="translate(0.248047)"/>
</clipPath>
</defs>
</svg>
