<svg width="25" height="24" viewBox="0 0 25 24" fill="none" xmlns="http://www.w3.org/2000/svg">
<g id="vscode-icons:file-type-html">
<path id="Vector" d="M4.67646 20.4007L2.99121 1.5H21.5087L19.8212 20.3978L12.2387 22.5L4.67646 20.4007Z" fill="#E44F26"/>
<path id="Vector_2" d="M12.25 20.8937L18.3775 19.1949L19.819 3.0459H12.25V20.8937Z" fill="#F1662A"/>
<path id="Vector_3" d="M12.25 10.0553H9.1825L8.971 7.68153H12.25V5.36328H6.4375L6.493 5.98578L7.06225 12.3735H12.25V10.0553ZM12.25 16.0755L12.2395 16.0785L9.658 15.3818L9.493 13.533H7.16575L7.4905 17.172L12.2395 18.4905L12.25 18.4875V16.0755Z" fill="#EBEBEB"/>
<path id="Vector_4" d="M12.2417 10.0553V12.3735H15.0962L14.8277 15.3803L12.2417 16.0778V18.4898L16.9944 17.172L17.0289 16.7805L17.5734 10.6778L17.6304 10.0553H12.2417ZM12.2417 5.36328V7.68153H17.8412L17.8877 7.16103L17.9934 5.98578L18.0489 5.36328H12.2417Z" fill="white"/>
</g>
</svg>
