<svg width="25" height="24" viewBox="0 0 25 24" fill="none" xmlns="http://www.w3.org/2000/svg">
<g id="skill-icons:wordpress" clip-path="url(#clip0_2780_5185)">
<g id="Group">
<path id="Vector" d="M19.105 0H6.35498C3.24838 0 0.72998 2.5184 0.72998 5.625V18.375C0.72998 21.4816 3.24838 24 6.35498 24H19.105C22.2116 24 24.73 21.4816 24.73 18.375V5.625C24.73 2.5184 22.2116 0 19.105 0Z" fill="#0073AA"/>
<path id="Vector_2" d="M4.6875 11.9994C4.6875 15.1827 6.53747 17.9337 9.22003 19.2374L5.38378 8.72649C4.92392 9.75629 4.68665 10.8716 4.6875 11.9994ZM18.1588 11.5936C18.1588 10.5997 17.8018 9.9114 17.4956 9.37561C17.0879 8.71318 16.7058 8.15218 16.7058 7.48974C16.7058 6.75043 17.2665 6.0623 18.0563 6.0623C18.092 6.0623 18.1257 6.06671 18.1605 6.06868C16.7297 4.75786 14.8235 3.95752 12.7297 3.95752C9.92016 3.95752 7.44825 5.39902 6.01031 7.58246C6.19894 7.58808 6.37678 7.59211 6.52781 7.59211C7.36903 7.59211 8.67113 7.48993 8.67113 7.48993C9.10463 7.46443 9.15581 8.10118 8.72269 8.15246C8.72269 8.15246 8.28703 8.20374 7.80225 8.22914L10.7308 16.9402L12.4908 11.6618L11.2378 8.22886C10.8048 8.20346 10.3945 8.15218 10.3945 8.15218C9.96113 8.12677 10.0119 7.46414 10.4453 7.48974C10.4453 7.48974 11.7734 7.59174 12.5636 7.59174C13.4048 7.59174 14.7069 7.48974 14.7069 7.48974C15.1408 7.46414 15.1917 8.10089 14.7585 8.15218C14.7585 8.15218 14.3219 8.20346 13.8381 8.22886L16.7444 16.8739L17.5465 14.1934C17.8943 13.081 18.1588 12.2821 18.1588 11.5936Z" fill="white"/>
<path id="Vector_3" d="M12.8709 12.703L10.458 19.7146C11.1957 19.9318 11.9608 20.0422 12.7299 20.0422C13.6394 20.0425 14.5425 19.8884 15.4004 19.5863C15.3781 19.5511 15.359 19.5141 15.3432 19.4755L12.8709 12.703ZM19.7865 8.14111C19.8231 8.41521 19.8412 8.69146 19.8407 8.96799C19.8407 9.78408 19.6883 10.7015 19.2292 11.8486L16.7726 18.9511C19.1635 17.5568 20.7717 14.9666 20.7717 11.9997C20.7718 10.6014 20.4147 9.28655 19.7865 8.14111Z" fill="white"/>
<path id="Vector_4" d="M12.7298 2.625C7.56061 2.625 3.35498 6.83034 3.35498 11.9994C3.35498 17.1692 7.56061 21.3743 12.7298 21.3743C17.8987 21.3743 22.105 17.1692 22.105 11.9994C22.1048 6.83034 17.8987 2.625 12.7298 2.625ZM12.7298 20.9447C7.79761 20.9447 3.78482 16.9318 3.78482 11.9994C3.78482 7.06734 7.79751 3.05484 12.7298 3.05484C17.6617 3.05484 21.6742 7.06734 21.6742 11.9994C21.6742 16.9318 17.6617 20.9447 12.7298 20.9447Z" fill="white"/>
</g>
</g>
<defs>
<clipPath id="clip0_2780_5185">
<rect width="24" height="24" fill="white" transform="translate(0.72998)"/>
</clipPath>
</defs>
</svg>
