<svg width="67" height="144" viewBox="0 0 67 144" fill="none" xmlns="http://www.w3.org/2000/svg">
<path d="M2.99638 13.0059L3.00056 10.0008C1.84102 11.0982 1.26901 11.7469 0.50019 13.0001L2.99638 13.0059Z" fill="#002D9C"/>
<g filter="url(#filter0_d_2824_16621)">
<path d="M3 9.99949C20 -2.99965 49 -2.99988 67 13V112.074L34.1233 141.5L3 112.074V9.99949Z" fill="#002D9C"/>
</g>
<path d="M30.06 108.782V107.298H40.28V108.88H33.658L38.348 111.148V112.282L33.658 114.578H40.28V116.16H30.06V114.676L36.206 111.722L30.06 108.782ZM39.426 104.835C38.782 105.479 37.76 105.815 36.416 105.815H33.91C32.566 105.815 31.544 105.479 30.9 104.821C30.27 104.163 29.934 103.267 29.934 102.175C29.934 101.097 30.27 100.201 30.9 99.543C31.544 98.899 32.566 98.563 33.91 98.563H36.416C37.76 98.563 38.782 98.899 39.426 99.557C40.056 100.215 40.392 101.111 40.392 102.189C40.392 103.281 40.056 104.177 39.426 104.835ZM33.952 100.145C32.23 100.145 31.418 100.803 31.418 102.175C31.418 102.875 31.6 103.379 31.992 103.715C32.384 104.065 33.028 104.233 33.952 104.233H36.472C37.354 104.233 37.956 104.065 38.334 103.715C38.712 103.365 38.894 102.875 38.894 102.175C38.894 100.803 38.124 100.145 36.472 100.145H33.952ZM39.58 96.6821C39.006 97.3401 38.124 97.7181 36.99 97.7461V96.1781C38.292 96.1361 38.908 95.4921 38.908 94.1481C38.908 93.4761 38.782 93.0001 38.502 92.6641C38.25 92.3561 37.9 92.2021 37.382 92.2021C36.92 92.2021 36.598 92.3141 36.388 92.5521C36.15 92.8181 35.982 93.2101 35.898 93.7701L35.716 94.8621C35.576 95.7021 35.282 96.3601 34.834 96.8221C34.372 97.2841 33.714 97.5361 32.916 97.5361C31.992 97.5361 31.236 97.2141 30.718 96.5841C30.2 95.9681 29.934 95.1421 29.934 94.1481C29.934 93.2381 30.186 92.4541 30.662 91.8661C31.194 91.2081 32.062 90.8301 33.182 90.7601V92.3421C31.95 92.3701 31.376 92.9441 31.376 94.1621C31.376 94.7641 31.502 95.2121 31.782 95.5341C32.048 95.8421 32.384 95.9821 32.846 95.9821C33.252 95.9821 33.532 95.8701 33.756 95.6461C33.98 95.3941 34.148 95.0161 34.232 94.4981L34.428 93.3781C34.582 92.5101 34.89 91.8241 35.352 91.3621C35.814 90.8861 36.5 90.6341 37.326 90.6341C38.278 90.6341 39.048 90.9701 39.58 91.6141C40.098 92.2581 40.364 93.1401 40.364 94.2181C40.364 95.2401 40.098 96.0801 39.58 96.6821ZM31.544 86.1135H40.28V87.6815H31.544V90.4395H30.06L30.06 83.3555H31.544L31.544 86.1135ZM30.886 73.4684C31.432 72.8804 32.23 72.5724 33.224 72.5724C34.162 72.5724 34.932 72.8804 35.478 73.4824C36.01 74.0704 36.29 74.8964 36.29 75.8904V78.0604H40.28V79.6424H30.06V75.8904C30.06 74.8824 30.34 74.0704 30.886 73.4684ZM34.414 74.6024C34.148 74.2944 33.77 74.1544 33.224 74.1544C32.636 74.1544 32.23 74.2944 31.95 74.6024C31.684 74.9244 31.544 75.3584 31.544 75.9744V78.0604H34.806V75.9744C34.806 75.3584 34.68 74.9104 34.414 74.6024ZM39.426 70.7783C38.782 71.4223 37.76 71.7583 36.416 71.7583H33.91C32.566 71.7583 31.544 71.4223 30.9 70.7643C30.27 70.1063 29.934 69.2103 29.934 68.1183C29.934 67.0403 30.27 66.1443 30.9 65.4863C31.544 64.8423 32.566 64.5063 33.91 64.5063H36.416C37.76 64.5063 38.782 64.8423 39.426 65.5003C40.056 66.1583 40.392 67.0543 40.392 68.1323C40.392 69.2243 40.056 70.1203 39.426 70.7783ZM33.952 66.0883C32.23 66.0883 31.418 66.7463 31.418 68.1183C31.418 68.8183 31.6 69.3223 31.992 69.6583C32.384 70.0083 33.028 70.1763 33.952 70.1763H36.472C37.354 70.1763 37.956 70.0083 38.334 69.6583C38.712 69.3083 38.894 68.8183 38.894 68.1183C38.894 66.7463 38.124 66.0883 36.472 66.0883H33.952ZM30.886 56.8434C31.432 56.2554 32.23 55.9474 33.224 55.9474C34.162 55.9474 34.932 56.2554 35.478 56.8574C36.01 57.4454 36.29 58.2714 36.29 59.2654V61.4354H40.28V63.0174H30.06V59.2654C30.06 58.2574 30.34 57.4454 30.886 56.8434ZM34.414 57.9774C34.148 57.6694 33.77 57.5294 33.224 57.5294C32.636 57.5294 32.23 57.6694 31.95 57.9774C31.684 58.2994 31.544 58.7334 31.544 59.3494V61.4354H34.806V59.3494C34.806 58.7334 34.68 58.2854 34.414 57.9774ZM39.93 53.1593C39.636 53.7053 39.202 54.1533 38.67 54.4613C38.138 54.7833 37.522 54.9373 36.85 54.9373H30.06V53.3413H36.766C37.438 53.3413 37.942 53.1593 38.334 52.7953C38.712 52.4313 38.894 51.9553 38.894 51.3253C38.894 50.6953 38.712 50.2333 38.334 49.8553C37.942 49.4913 37.438 49.3093 36.766 49.3093H30.06V47.7273H36.85C37.536 47.7273 38.152 47.8813 38.684 48.1893C39.216 48.4973 39.636 48.9453 39.93 49.4913C40.21 50.0233 40.364 50.6533 40.364 51.3253C40.364 51.9973 40.21 52.6273 39.93 53.1593ZM30.06 44.4686H38.796V39.6526H40.28L40.28 46.0506H30.06V44.4686ZM37.956 37.2965L40.28 38.1085V39.7885L30.06 36.0645V34.8185L40.28 31.0945V32.7745L37.956 33.5865V37.2965ZM32.622 35.4485L36.528 36.8065V34.0765L32.622 35.4485ZM36.038 28.9784H40.28V30.5604H30.06V26.6964C30.06 25.7304 30.326 24.9324 30.844 24.3724C31.362 23.7984 32.118 23.5044 33.056 23.5044C33.798 23.5044 34.442 23.7144 34.946 24.1064C35.352 24.4424 35.646 24.9044 35.842 25.4504L40.28 23.1124V24.9184L36.038 27.1024V28.9784ZM34.596 26.7804C34.596 26.2204 34.47 25.8144 34.204 25.5064C33.938 25.2264 33.574 25.0864 33.07 25.0864C32.538 25.0864 32.174 25.2264 31.922 25.5064C31.67 25.8004 31.544 26.2064 31.544 26.7804V28.9784H34.596V26.7804Z" fill="white"/>
<defs>
<filter id="filter0_d_2824_16621" x="1" y="0.595947" width="66" height="142.904" filterUnits="userSpaceOnUse" color-interpolation-filters="sRGB">
<feFlood flood-opacity="0" result="BackgroundImageFix"/>
<feColorMatrix in="SourceAlpha" type="matrix" values="0 0 0 0 0 0 0 0 0 0 0 0 0 0 0 0 0 0 127 0" result="hardAlpha"/>
<feOffset dx="-1" dy="1"/>
<feGaussianBlur stdDeviation="0.5"/>
<feComposite in2="hardAlpha" operator="out"/>
<feColorMatrix type="matrix" values="0 0 0 0 0 0 0 0 0 0 0 0 0 0 0 0 0 0 0.25 0"/>
<feBlend mode="normal" in2="BackgroundImageFix" result="effect1_dropShadow_2824_16621"/>
<feBlend mode="normal" in="SourceGraphic" in2="effect1_dropShadow_2824_16621" result="shape"/>
</filter>
</defs>
</svg>
