<svg width="100" height="22" viewBox="0 0 100 22" fill="none" xmlns="http://www.w3.org/2000/svg">
<path d="M7.97915 0.955635H10.4769V15.0858H7.97915V13.9437C7.24365 14.885 6.19939 15.3569 4.84385 15.3569C3.48832 15.3569 2.42648 14.8624 1.50522 13.8759C0.581445 12.8894 0.12207 11.6794 0.12207 10.2461C0.12207 8.81272 0.583955 7.60278 1.50522 6.61625C2.42899 5.62972 3.54103 5.1352 4.84385 5.1352C6.14667 5.1352 7.24365 5.60713 7.97915 6.54847V0.953125V0.955635ZM3.38289 12.2116C3.89247 12.7212 4.53509 12.9772 5.30825 12.9772C6.08141 12.9772 6.72152 12.7212 7.22357 12.2116C7.72562 11.702 7.97915 11.0468 7.97915 10.2461C7.97915 9.4453 7.72813 8.79263 7.22357 8.28054C6.72152 7.77096 6.08141 7.51492 5.30825 7.51492C4.53509 7.51492 3.89247 7.77096 3.38289 8.28054C2.87331 8.79012 2.61726 9.4453 2.61726 10.2461C2.61726 11.0468 2.8708 11.702 3.38289 12.2116Z" fill="#0F0F0F"/>
<path d="M13.6096 4.03313C13.1954 4.03313 12.8389 3.88252 12.5352 3.57878C12.2314 3.27504 12.0808 2.91858 12.0808 2.50439C12.0808 2.0902 12.2314 1.73123 12.5352 1.41996C12.8389 1.1112 13.1954 0.955566 13.6096 0.955566C14.0237 0.955566 14.4003 1.1112 14.704 1.41996C15.0078 1.72872 15.1584 2.0902 15.1584 2.50439C15.1584 2.91858 15.0078 3.27504 14.704 3.57878C14.4003 3.88252 14.0363 4.03313 13.6096 4.03313ZM12.3695 15.0858V5.40624H14.8672V15.0858H12.3695Z" fill="#0F0F0F"/>
<path d="M29.7355 4.03313C29.3213 4.03313 28.9649 3.88252 28.6611 3.57878C28.3574 3.27504 28.2068 2.91858 28.2068 2.50439C28.2068 2.0902 28.3574 1.73123 28.6611 1.41996C28.9649 1.1112 29.3213 0.955566 29.7355 0.955566C30.1497 0.955566 30.5263 1.1112 30.83 1.41996C31.1337 1.72872 31.2844 2.0902 31.2844 2.50439C31.2844 2.91858 31.1337 3.27504 30.83 3.57878C30.5263 3.88252 30.1623 4.03313 29.7355 4.03313ZM28.4955 15.0858V5.40624H30.9932V15.0858H28.4955Z" fill="#0F0F0F"/>
<path d="M38.4259 7.80601H36.2394V11.8324C36.2394 12.1688 36.3223 12.4123 36.4905 12.568C36.6587 12.7236 36.9022 12.8089 37.226 12.829C37.5473 12.8491 37.9489 12.8466 38.4259 12.819V15.0832C36.7089 15.2765 35.4989 15.1159 34.796 14.5987C34.0932 14.0816 33.7417 13.1604 33.7417 11.8299V7.8035H32.0574V5.4037H33.7417V3.44821L36.2394 2.69263V5.4037H38.4259V7.8035V7.80601Z" fill="#0F0F0F"/>
<path d="M46.8654 5.40636H49.3631V15.0859H46.8654V13.9437C46.1173 14.8851 45.0655 15.357 43.71 15.357C42.3545 15.357 41.3127 14.8625 40.3915 13.8759C39.4677 12.8894 39.0083 11.6795 39.0083 10.2461C39.0083 8.81277 39.4702 7.60283 40.3915 6.6163C41.3127 5.62977 42.4197 5.13525 43.71 5.13525C45.0655 5.13525 46.1173 5.60718 46.8654 6.54852V5.40636ZM42.2591 12.2091C42.7611 12.7187 43.4012 12.9748 44.1744 12.9748C44.9476 12.9748 45.5902 12.7187 46.0998 12.2091C46.6093 11.6996 46.8654 11.0444 46.8654 10.2436C46.8654 9.44284 46.6093 8.79018 46.0998 8.27809C45.5902 7.76851 44.9476 7.51246 44.1744 7.51246C43.4012 7.51246 42.7611 7.76851 42.2591 8.27809C41.757 8.78767 41.5035 9.44284 41.5035 10.2436C41.5035 11.0444 41.7545 11.6996 42.2591 12.2091Z" fill="#0F0F0F"/>
<path d="M51.2383 15.0858V0.955566H53.736V15.0858H51.2383Z" fill="#0F0F0F"/>
<path d="M64.3644 5.13513C65.6673 5.13513 66.7818 5.62965 67.7031 6.61618C68.6243 7.60271 69.0862 8.81265 69.0862 10.246C69.0862 11.6794 68.6243 12.8893 67.7031 13.8758C66.7793 14.8624 65.6673 15.3569 64.3644 15.3569C63.0616 15.3569 61.9647 14.8849 61.2291 13.9436V15.0858H58.7314V0.955566H61.2291V6.55092C61.9647 5.60957 63.0089 5.13764 64.3644 5.13764V5.13513ZM61.9822 12.209C62.4868 12.7186 63.1244 12.9746 63.8975 12.9746C64.6707 12.9746 65.3133 12.7186 65.8229 12.209C66.3325 11.6994 66.5885 11.0443 66.5885 10.2435C66.5885 9.44272 66.3325 8.79006 65.8229 8.27797C65.3133 7.76839 64.6707 7.51234 63.8975 7.51234C63.1244 7.51234 62.4843 7.76839 61.9822 8.27797C61.4802 8.78755 61.2266 9.44272 61.2266 10.2435C61.2266 11.0443 61.4777 11.6994 61.9822 12.209Z" fill="#0F0F0F"/>
<path d="M77.8168 5.40636H80.3145V15.0859H77.8168V13.9437C77.0687 14.8851 76.0169 15.357 74.6614 15.357C73.3059 15.357 72.2641 14.8625 71.3429 13.8759C70.4191 12.8894 69.9597 11.6795 69.9597 10.2461C69.9597 8.81277 70.4216 7.60283 71.3429 6.6163C72.2666 5.62977 73.3711 5.13525 74.6614 5.13525C76.0169 5.13525 77.0687 5.60718 77.8168 6.54852V5.40636ZM73.2105 12.2091C73.715 12.7187 74.3527 12.9748 75.1258 12.9748C75.899 12.9748 76.5416 12.7187 77.0512 12.2091C77.5608 11.6996 77.8168 11.0444 77.8168 10.2436C77.8168 9.44284 77.5608 8.79018 77.0512 8.27809C76.5416 7.76851 75.899 7.51246 75.1258 7.51246C74.3527 7.51246 73.7125 7.76851 73.2105 8.27809C72.7084 8.78767 72.4549 9.44284 72.4549 10.2436C72.4549 11.0444 72.7059 11.6996 73.2105 12.2091Z" fill="#0F0F0F"/>
<path d="M84.4163 8.15508C84.4163 8.41364 84.587 8.62199 84.9284 8.78516C85.2698 8.94581 85.6865 9.0889 86.176 9.2119C86.6655 9.3349 87.1575 9.49054 87.647 9.6763C88.1365 9.86457 88.5532 10.1758 88.8946 10.6151C89.236 11.0544 89.4066 11.6017 89.4066 12.2619C89.4066 13.2559 89.0351 14.019 88.2946 14.5562C87.5516 15.0909 86.6278 15.3595 85.5158 15.3595C83.5276 15.3595 82.1746 14.5914 81.4517 13.0551L83.6205 11.8351C83.9042 12.6735 84.5368 13.0927 85.5183 13.0927C86.4094 13.0927 86.8537 12.8141 86.8537 12.2593C86.8537 12.0008 86.683 11.7924 86.3416 11.6293C86.0002 11.4686 85.5835 11.323 85.094 11.1925C84.6045 11.0645 84.1125 10.9013 83.623 10.708C83.1335 10.5147 82.7168 10.2085 82.3754 9.78926C82.0341 9.37005 81.8633 8.84289 81.8633 8.21282C81.8633 7.25893 82.2148 6.50585 82.9177 5.95862C83.6205 5.41138 84.4941 5.13525 85.5409 5.13525C86.3266 5.13525 87.0445 5.31348 87.6896 5.66743C88.3348 6.02137 88.8443 6.52844 89.2184 7.18613L87.0897 8.34837C86.7809 7.69069 86.2638 7.36185 85.5409 7.36185C85.217 7.36185 84.951 7.43213 84.7376 7.57522C84.5242 7.7183 84.4188 7.91159 84.4188 8.15508H84.4163Z" fill="#0F0F0F"/>
<path d="M92.6046 11.2727C92.941 12.4851 93.8497 13.0926 95.3333 13.0926C96.2872 13.0926 97.0101 12.7713 97.5021 12.1237L99.5153 13.2859C98.5589 14.6665 97.1532 15.3569 95.2956 15.3569C93.6966 15.3569 92.4113 14.8724 91.4424 13.9059C90.4734 12.937 89.9915 11.7195 89.9915 10.2485C89.9915 8.77749 90.4684 7.57508 91.4248 6.6011C92.3787 5.62713 93.6062 5.14014 95.1023 5.14014C96.5206 5.14014 97.6929 5.62963 98.6167 6.61114C99.5379 7.59265 99.9998 8.8051 99.9998 10.251C99.9998 10.5748 99.9672 10.9162 99.9019 11.2777H92.6046V11.2727ZM92.567 9.33728H97.5021C97.359 8.67959 97.0679 8.19009 96.621 7.86627C96.1767 7.54496 95.6696 7.38179 95.1023 7.38179C94.4321 7.38179 93.8748 7.55249 93.438 7.89388C92.9987 8.23528 92.7101 8.71724 92.567 9.33476V9.33728Z" fill="#0F0F0F"/>
<path d="M25.2572 6.96522C24.6372 6.3477 23.9343 5.91594 23.1536 5.66491C23.111 5.65236 23.0708 5.63981 23.0306 5.62726C22.7118 5.53438 22.3805 5.47162 22.0366 5.43648C21.9939 5.43146 21.9512 5.42895 21.9061 5.42644C21.8985 5.42644 21.891 5.42644 21.8835 5.42644C21.8358 5.42142 21.7881 5.41891 21.7429 5.4164C21.7102 5.4164 21.6751 5.41138 21.6425 5.41138C21.6199 5.41138 21.5973 5.41138 21.5772 5.41138C21.5295 5.41138 21.4818 5.41138 21.4366 5.41138C21.3914 5.41138 21.3412 5.41138 21.2961 5.41138C20.5982 5.42644 19.9506 5.55446 19.3531 5.79796C19.3531 5.79796 19.3481 5.79796 19.3481 5.80047C18.7155 6.05902 18.1382 6.44811 17.6211 6.96522C16.5843 8.00196 16.0647 9.27465 16.0647 10.7808C16.0647 12.287 16.5843 13.5597 17.6211 14.5964C18.6603 15.6331 19.9305 16.1527 21.4366 16.1527C22.9428 16.1527 24.218 15.6331 25.2623 14.5964C26.3065 13.5571 26.8287 12.287 26.8287 10.7808C26.8287 9.27465 26.3065 8.00196 25.2623 6.96522H25.2572ZM23.4047 12.7965C22.875 13.3262 22.2173 13.5898 21.4316 13.5898C20.6459 13.5898 19.9907 13.3262 19.4686 12.7965C18.9465 12.2669 18.6854 11.5941 18.6854 10.7808C18.6854 9.96748 18.9465 9.29473 19.4686 8.76758C19.9907 8.23792 20.6459 7.97434 21.4316 7.97434C22.2173 7.97434 22.875 8.24043 23.4047 8.76758C23.9343 9.29724 24.1979 9.96748 24.1979 10.7808C24.1979 11.5941 23.9318 12.2669 23.4047 12.7965Z" fill="#0F0F0F"/>
<path d="M24.0373 16.1528C24.0373 16.921 23.7887 17.551 23.2917 18.0481C22.7922 18.5451 22.1721 18.7961 21.4316 18.7961C20.6911 18.7961 20.0761 18.5451 19.5841 18.0481C19.0996 17.5561 18.8536 16.931 18.8461 16.1729L16.376 16.193C16.386 17.5937 16.873 18.776 17.842 19.745C18.8184 20.719 20.0158 21.2085 21.4316 21.2085C22.8474 21.2085 24.0498 20.719 25.0338 19.745C26.0178 18.7685 26.5099 17.5711 26.5099 16.1528H24.0398H24.0373Z" fill="#0F0F0F"/>
</svg>
